<?xml version="1.0" encoding="utf-8"?>
<!-- Generator: Adobe Illustrator 16.0.0, SVG Export Plug-In . SVG Version: 6.00 Build 0)  -->
<!DOCTYPE svg PUBLIC "-//W3C//DTD SVG 1.1//EN" "http://www.w3.org/Graphics/SVG/1.1/DTD/svg11.dtd">
<svg version="1.1" id="Layer_1" xmlns="http://www.w3.org/2000/svg" xmlns:xlink="http://www.w3.org/1999/xlink" x="0px" y="0px"
	 width="263.76px" height="123.344px" viewBox="0 0 263.76 123.344" enable-background="new 0 0 263.76 123.344"
	 xml:space="preserve">
<path fill="none" d="M-33.067-637.145c-16.46,0-29.806,13.346-29.806,29.806c0,16.461,13.347,29.805,29.806,29.805
	c16.461,0,29.804-13.344,29.804-29.805S-16.607-637.145-33.067-637.145 M-33.067-590.783c-9.13,0-16.561-7.428-16.561-16.559
	c0-9.132,7.431-16.562,16.561-16.562s16.558,7.428,16.558,16.562C-16.509-598.21-23.937-590.783-33.067-590.783"/>
<path fill="none" d="M88.201-637.145c-3.364,0-6.593,0.566-9.609,1.595l-8.195-12.771c1.765-1.299,3.568-2.469,5.371-3.415v-14.66
	L62.6-660.463l-12.211-19.021l-23.862-0.001l-4.384,3.65l20.016,6.519l8.995,14.014L27.406-644.18L4.187-659.498l-37.254-5.937
	v9.521l27.372,20.973l16.944,35.19h32.865l8.489-30.839c0,0,3.416-4.419,8.36-9.433l6.959,10.841
	c-5.857,5.438-9.527,13.209-9.527,21.837c0,16.461,13.344,29.805,29.804,29.805c16.461,0,29.805-13.344,29.805-29.805
	C118.005-623.802,104.662-637.145,88.201-637.145 M88.201-590.783c-9.129,0-16.558-7.428-16.558-16.559
	c0-3.918,1.37-7.521,3.65-10.356l8.805,13.711l10.447-6.708l-8.392-13.073c0.671-0.083,1.351-0.13,2.043-0.13
	c9.13,0,16.559,7.428,16.559,16.56C104.759-598.21,97.331-590.783,88.201-590.783"/>
<path fill="none" stroke="#DC1A8C" stroke-miterlimit="10" d="M246.761,76.542h-1.178c-1.576-8.776-4.896-16.248-6.265-17.942
	c-1.246-1.547-3.038-2.559-5.008-2.817l-47.737-8.65c0,0-26.935-25.723-42.909-25.723l-53.83-0.009
	c-10.437,0-19.156,7.952-29.258,17.16C55.82,42.9,50.566,47.675,44.771,51.922l-21.581,2.87c-3.118,0.995-5.377,3.913-5.377,7.357
	v24.729c0,4.268,3.459,7.727,7.727,7.727h20.67c3.871,10.207,13.745,17.483,25.292,17.483s21.422-7.276,25.292-17.483h74.463
	c3.87,10.207,13.744,17.483,25.292,17.483c11.549,0,21.424-7.276,25.292-17.483l24.925-0.015c1.42,0,2.566-1.149,2.566-2.569V79.115
	C249.331,77.691,248.183,76.542,246.761,76.542z M71.5,95.348c-5.68,0-10.302-4.623-10.302-10.304
	c0-5.684,4.622-10.304,10.302-10.304c5.684,0,10.306,4.62,10.306,10.304C81.803,90.725,77.182,95.348,71.5,95.348z M196.549,95.348
	c-5.682,0-10.304-4.623-10.304-10.304c0-5.684,4.622-10.304,10.304-10.304c5.684,0,10.305,4.62,10.305,10.304
	C206.851,90.725,202.229,95.348,196.549,95.348z"/>
</svg>
