<?xml version="1.0" encoding="utf-8"?>
<!-- Generator: Adobe Illustrator 16.0.0, SVG Export Plug-In . SVG Version: 6.00 Build 0)  -->
<!DOCTYPE svg PUBLIC "-//W3C//DTD SVG 1.1//EN" "http://www.w3.org/Graphics/SVG/1.1/DTD/svg11.dtd">
<svg version="1.1" id="Layer_1" xmlns="http://www.w3.org/2000/svg" xmlns:xlink="http://www.w3.org/1999/xlink" x="0px" y="0px"
	 width="841.89px" height="595.28px" viewBox="0 0 841.89 595.28" enable-background="new 0 0 841.89 595.28" xml:space="preserve">
<path fill="none" d="M-33.067-637.145c-16.46,0-29.803,13.344-29.803,29.804c0,16.46,13.344,29.804,29.803,29.804
	c16.461,0,29.804-13.344,29.804-29.804C-3.263-623.801-16.607-637.145-33.067-637.145 M-33.067-590.783
	c-9.13,0-16.558-7.428-16.558-16.558c0-9.13,7.428-16.558,16.558-16.558c9.13,0,16.558,7.428,16.558,16.558
	C-16.509-598.21-23.937-590.783-33.067-590.783"/>
<path fill="none" d="M88.201-637.145c-3.364,0-6.593,0.566-9.609,1.593l-8.198-12.77c1.765-1.299,3.571-2.469,5.371-3.415v-14.66
	L62.6-660.463l-12.211-19.021l-23.862-0.001l-4.384,3.65l20.016,6.519l8.995,14.012l-23.748,11.122L4.187-659.498l-37.254-5.934
	v9.521l27.372,20.973l16.946,35.189h32.865l8.489-30.839c0,0,3.416-4.419,8.363-9.43l6.959,10.839
	c-5.86,5.442-9.53,13.209-9.53,21.837c0,16.46,13.344,29.804,29.804,29.804c16.461,0,29.805-13.344,29.805-29.804
	C118.005-623.801,104.662-637.145,88.201-637.145 M88.201-590.783c-9.129,0-16.558-7.428-16.558-16.558
	c0-3.918,1.37-7.52,3.653-10.357l8.802,13.711l10.45-6.708l-8.392-13.073c0.671-0.083,1.351-0.13,2.043-0.13
	c9.13,0,16.559,7.428,16.559,16.558C104.759-598.21,97.331-590.783,88.201-590.783"/>
<path fill="none" stroke="#DC1A8C" stroke-miterlimit="10" d="M500.761,318.542h-1.176c-1.576-8.777-4.898-16.248-6.264-17.942
	c-1.246-1.548-3.038-2.559-5.007-2.82l-35.738-28.651c0,0-10.268-25.723-26.242-25.723l-82.496-0.006
	c-2.501,0-60.648,0.058-60.648,0.058c-0.855,0.273-7.646,3.201-8.344,7.377c-1.844,11.043-3.033,50.815-3.033,53.317v24.726
	c0,4.267,3.459,7.727,7.727,7.727h20.67c3.87,10.206,13.745,17.483,25.292,17.483s21.422-7.276,25.292-17.483h74.461
	c3.872,10.206,13.746,17.483,25.293,17.483s21.422-7.276,25.292-17.483l24.922-0.015c1.421,0,2.57-1.15,2.57-2.57v-12.906
	C503.331,319.692,502.182,318.542,500.761,318.542z M325.501,337.347c-5.681,0-10.303-4.622-10.303-10.303
	c0-5.681,4.622-10.303,10.303-10.303s10.302,4.622,10.302,10.303C335.803,332.725,331.182,337.347,325.501,337.347z
	 M450.548,337.347c-5.681,0-10.303-4.622-10.303-10.303c0-5.681,4.622-10.303,10.303-10.303s10.303,4.622,10.303,10.303
	C460.851,332.725,456.229,337.347,450.548,337.347z"/>
</svg>
