<?xml version="1.0" encoding="utf-8"?>
<!-- Generator: Adobe Illustrator 16.0.0, SVG Export Plug-In . SVG Version: 6.00 Build 0)  -->
<!DOCTYPE svg PUBLIC "-//W3C//DTD SVG 1.1//EN" "http://www.w3.org/Graphics/SVG/1.1/DTD/svg11.dtd">
<svg version="1.1" id="Layer_1" xmlns="http://www.w3.org/2000/svg" xmlns:xlink="http://www.w3.org/1999/xlink" x="0px" y="0px"
	 width="251.445px" height="137.14px" viewBox="0 0 251.445 137.14" enable-background="new 0 0 251.445 137.14"
	 xml:space="preserve">
<path fill="none" d="M-33.067-637.145c-16.46,0-29.804,13.344-29.804,29.804c0,16.461,13.345,29.805,29.804,29.805
	c16.461,0,29.804-13.344,29.804-29.805C-3.263-623.802-16.607-637.145-33.067-637.145 M-33.067-590.783
	c-9.13,0-16.559-7.428-16.559-16.559c0-9.13,7.429-16.558,16.559-16.558s16.558,7.428,16.558,16.558
	C-16.509-598.21-23.937-590.783-33.067-590.783"/>
<path fill="none" d="M88.201-637.145c-3.364,0-6.593,0.566-9.609,1.593l-8.197-12.77c1.765-1.299,3.57-2.469,5.371-3.415v-14.66
	L62.6-660.463l-12.211-19.021l-23.862-0.001l-4.384,3.65l20.016,6.519l8.995,14.012l-23.748,11.122L4.187-659.498l-37.254-5.935
	v9.521l27.372,20.973l16.945,35.189h32.865l8.489-30.839c0,0,3.416-4.419,8.362-9.431l6.959,10.839
	c-5.859,5.442-9.529,13.209-9.529,21.837c0,16.461,13.344,29.805,29.804,29.805c16.461,0,29.805-13.344,29.805-29.805
	C118.005-623.802,104.662-637.145,88.201-637.145 M88.201-590.783c-9.129,0-16.558-7.428-16.558-16.559
	c0-3.918,1.37-7.52,3.652-10.356l8.803,13.711l10.449-6.708l-8.392-13.073c0.671-0.083,1.351-0.13,2.043-0.13
	c9.13,0,16.559,7.428,16.559,16.558C104.759-598.21,97.331-590.783,88.201-590.783"/>
<path fill="none" stroke="#DC1A8C" stroke-miterlimit="10" d="M239.761,90.542h-1.176c-1.576-8.777-4.898-16.248-6.265-17.942
	c-1.246-1.548-3.038-2.559-5.007-2.82l-35.738-28.65c0,0-10.268-25.724-26.242-25.724L82.838,15.4
	c-2.501,0-60.647,0.059-60.647,0.059c-0.855,0.272-7.646,3.201-8.344,7.377c-1.845,11.043-3.033,50.814-3.033,53.316v24.727
	c0,4.267,3.459,7.727,7.727,7.727h20.67c3.87,10.206,13.745,17.483,25.292,17.483s21.422-7.276,25.292-17.483h74.462
	c3.872,10.206,13.746,17.483,25.293,17.483s21.422-7.276,25.292-17.483l24.922-0.015c1.421,0,2.569-1.15,2.569-2.57V93.114
	C242.331,91.692,241.182,90.542,239.761,90.542z M64.501,109.347c-5.681,0-10.303-4.622-10.303-10.303
	c0-5.682,4.622-10.304,10.303-10.304c5.682,0,10.303,4.622,10.303,10.304C74.803,104.725,70.182,109.347,64.501,109.347z
	 M189.549,109.347c-5.682,0-10.304-4.622-10.304-10.303c0-5.682,4.622-10.304,10.304-10.304c5.681,0,10.303,4.622,10.303,10.304
	C199.851,104.725,195.229,109.347,189.549,109.347z"/>
</svg>
