<?xml version="1.0" encoding="utf-8"?>
<!-- Generator: Adobe Illustrator 16.0.0, SVG Export Plug-In . SVG Version: 6.00 Build 0)  -->
<!DOCTYPE svg PUBLIC "-//W3C//DTD SVG 1.1//EN" "http://www.w3.org/Graphics/SVG/1.1/DTD/svg11.dtd">
<svg version="1.1" id="Layer_1" xmlns="http://www.w3.org/2000/svg" xmlns:xlink="http://www.w3.org/1999/xlink" x="0px" y="0px"
	 width="205.721px" height="127.973px" viewBox="12.72 0 205.721 127.973" enable-background="new 12.72 0 205.721 127.973"
	 xml:space="preserve">
<path fill="none" d="M-44.196-172.16c-16.46,0-29.805,13.346-29.805,29.806c0,16.461,13.346,29.807,29.805,29.807
	c16.461,0,29.804-13.346,29.804-29.807S-27.736-172.16-44.196-172.16 M-44.196-125.798c-9.131,0-16.56-7.43-16.56-16.562
	s7.429-16.56,16.56-16.56c9.13,0,16.558,7.428,16.558,16.56C-27.638-133.225-35.066-125.798-44.196-125.798"/>
<path fill="none" d="M77.072-172.16c-3.363,0-6.593,0.566-9.608,1.595l-8.196-12.771c1.765-1.299,3.569-2.471,5.371-3.415v-14.66
	l-13.166,5.936L39.26-214.499L15.398-214.5l-4.384,3.648l20.016,6.521l8.995,14.014l-23.748,11.12L-6.942-194.51l-37.254-5.938
	v9.521l27.371,20.973l16.945,35.188h32.864l8.489-30.839c0,0,3.416-4.419,8.361-9.433l6.959,10.839
	c-5.858,5.442-9.528,13.211-9.528,21.839c0,16.461,13.344,29.805,29.804,29.805c16.463,0,29.807-13.344,29.807-29.805
	C106.876-158.817,93.533-172.16,77.072-172.16 M77.072-125.798c-9.129,0-16.558-7.43-16.558-16.562
	c0-3.918,1.369-7.521,3.651-10.354l8.803,13.711l10.449-6.708l-8.393-13.073c0.671-0.083,1.352-0.13,2.043-0.13
	c9.131,0,16.561,7.43,16.561,16.56C93.63-133.225,86.202-125.798,77.072-125.798"/>
<g>
	<g>
		<path fill="none" stroke="#DC1A8C" stroke-miterlimit="10" d="M54.699,57.422c-16.462,0-29.807,13.346-29.807,29.803
			c0,16.46,13.345,29.808,29.807,29.808c16.459,0,29.803-13.348,29.803-29.808C84.501,70.766,71.158,57.422,54.699,57.422z
			 M54.699,103.782c-9.132,0-16.561-7.431-16.561-16.56c0-9.132,7.429-16.559,16.561-16.559c9.129,0,16.558,7.427,16.558,16.559
			C71.256,96.354,63.828,103.782,54.699,103.782z M175.966,57.422c-3.358,0-6.594,0.563-9.606,1.594l-8.195-12.771
			c1.766-1.301,3.568-2.471,5.371-3.416v-14.66l-13.166,5.938l-12.213-19.021h-23.861l-4.383,3.648l20.017,6.519l8.993,14.014
			L115.173,50.39L91.955,35.077L54.7,29.141v9.521l27.372,20.973L99.017,94.82h32.862l8.49-30.839c0,0,3.416-4.418,8.358-9.433
			l6.959,10.841c-5.856,5.44-9.526,13.209-9.526,21.835c0,16.46,13.344,29.806,29.805,29.806c16.464,0,29.81-13.346,29.81-29.806
			C205.772,70.764,192.429,57.422,175.966,57.422z M175.966,103.782c-9.129,0-16.559-7.431-16.559-16.56
			c0-3.917,1.368-7.521,3.651-10.354l8.803,13.71l10.451-6.708L173.918,70.8c0.67-0.084,1.354-0.131,2.043-0.131
			c9.129,0,16.563,7.429,16.563,16.559C192.526,96.356,185.097,103.782,175.966,103.782z"/>
	</g>
</g>
</svg>
