<?xml version="1.0" encoding="utf-8"?>
<!-- Generator: Adobe Illustrator 16.0.0, SVG Export Plug-In . SVG Version: 6.00 Build 0)  -->
<!DOCTYPE svg PUBLIC "-//W3C//DTD SVG 1.1//EN" "http://www.w3.org/Graphics/SVG/1.1/DTD/svg11.dtd">
<svg version="1.1" id="Layer_1" xmlns="http://www.w3.org/2000/svg" xmlns:xlink="http://www.w3.org/1999/xlink" x="0px" y="0px"
	 width="841.89px" height="595.28px" viewBox="0 0 841.89 595.28" enable-background="new 0 0 841.89 595.28" xml:space="preserve">
<path fill="none" d="M-33.067-637.145c-16.46,0-29.803,13.344-29.803,29.804c0,16.46,13.344,29.804,29.803,29.804
	c16.461,0,29.804-13.344,29.804-29.804C-3.263-623.801-16.607-637.145-33.067-637.145 M-33.067-590.783
	c-9.13,0-16.558-7.428-16.558-16.558c0-9.13,7.428-16.558,16.558-16.558c9.13,0,16.558,7.428,16.558,16.558
	C-16.509-598.21-23.937-590.783-33.067-590.783"/>
<path fill="none" d="M88.201-637.145c-3.364,0-6.593,0.566-9.609,1.593l-8.198-12.77c1.765-1.299,3.571-2.469,5.371-3.415v-14.66
	L62.6-660.463l-12.211-19.021l-23.862-0.001l-4.384,3.65l20.016,6.519l8.995,14.012l-23.748,11.122L4.187-659.498l-37.254-5.934
	v9.521l27.372,20.973l16.946,35.189h32.865l8.489-30.839c0,0,3.416-4.419,8.363-9.43l6.959,10.839
	c-5.86,5.442-9.53,13.209-9.53,21.837c0,16.46,13.344,29.804,29.804,29.804c16.461,0,29.805-13.344,29.805-29.804
	C118.005-623.801,104.662-637.145,88.201-637.145 M88.201-590.783c-9.129,0-16.558-7.428-16.558-16.558
	c0-3.918,1.37-7.52,3.653-10.357l8.802,13.711l10.45-6.708l-8.392-13.073c0.671-0.083,1.351-0.13,2.043-0.13
	c9.13,0,16.559,7.428,16.559,16.558C104.759-598.21,97.331-590.783,88.201-590.783"/>
<g>
	<g>
		<path fill="none" stroke="#DC1A8C" stroke-miterlimit="10" d="M326.433,290.355c-16.46,0-29.804,13.344-29.804,29.804
			c0,16.46,13.344,29.804,29.804,29.804c16.46,0,29.804-13.344,29.804-29.804C356.237,303.699,342.893,290.355,326.433,290.355z
			 M326.433,336.717c-9.13,0-16.558-7.428-16.558-16.558c0-9.13,7.428-16.558,16.558-16.558c9.13,0,16.558,7.428,16.558,16.558
			C342.991,329.29,335.563,336.717,326.433,336.717z M447.701,290.355c-3.363,0-6.593,0.565-9.609,1.592l-8.197-12.77
			c1.764-1.299,3.57-2.469,5.371-3.415v-14.661l-13.166,5.935l-12.211-19.021l-23.862,0l-4.384,3.649l20.016,6.519l8.995,14.012
			l-23.748,11.123l-23.219-15.315l-37.254-5.934v9.521l27.372,20.973l16.946,35.189h32.865l8.489-30.838
			c0,0,3.416-4.419,8.363-9.431l6.958,10.839c-5.859,5.442-9.529,13.209-9.529,21.837c0,16.46,13.343,29.804,29.804,29.804
			c16.461,0,29.805-13.344,29.805-29.804C477.505,303.699,464.162,290.355,447.701,290.355z M447.701,336.717
			c-9.129,0-16.558-7.428-16.558-16.558c0-3.918,1.37-7.52,3.653-10.357l8.802,13.711l10.451-6.708l-8.392-13.073
			c0.671-0.083,1.351-0.13,2.043-0.13c9.13,0,16.559,7.428,16.559,16.558C464.259,329.29,456.831,336.717,447.701,336.717z"/>
	</g>
</g>
</svg>
